<?xml version="1.0" encoding="utf-8"?>
<!-- Generator: Adobe Illustrator 21.0.0, SVG Export Plug-In . SVG Version: 6.00 Build 0)  -->
<svg version="1.1" id="Layer_1" xmlns="http://www.w3.org/2000/svg" xmlns:xlink="http://www.w3.org/1999/xlink" x="0px" y="0px"
	 width="1400px" height="980px" viewBox="0 0 1400 980" style="enable-background:new 0 0 1400 980;" xml:space="preserve">
<style type="text/css">
	.st0{fill-rule:evenodd;clip-rule:evenodd;fill:#4C4F59;}
	.st1{fill-rule:evenodd;clip-rule:evenodd;fill:#585B63;}
	.st2{fill-rule:evenodd;clip-rule:evenodd;fill:#424754;}
	.st3{fill-rule:evenodd;clip-rule:evenodd;fill:#363840;}
	.st4{fill-rule:evenodd;clip-rule:evenodd;fill:#BF9D64;}
	.st5{fill-rule:evenodd;clip-rule:evenodd;fill:#DDB97B;}
	.st6{fill-rule:evenodd;clip-rule:evenodd;fill:#F0D29E;}
	.st7{fill-rule:evenodd;clip-rule:evenodd;fill:#F7DEB2;}
	.st8{fill-rule:evenodd;clip-rule:evenodd;fill:#3E424D;}
	.st9{fill-rule:evenodd;clip-rule:evenodd;fill:#5A6173;}
	.st10{fill-rule:evenodd;clip-rule:evenodd;fill:#474B57;}
	.st11{fill-rule:evenodd;clip-rule:evenodd;fill:#FFFFFF;}
	.st12{fill-rule:evenodd;clip-rule:evenodd;fill:#E45449;}
	.st13{fill-rule:evenodd;clip-rule:evenodd;fill:#99FFFF;}
	.st14{fill-rule:evenodd;clip-rule:evenodd;fill:#E6E6E6;}
	.st15{fill-rule:evenodd;clip-rule:evenodd;fill:#494D57;}
	.st16{fill-rule:evenodd;clip-rule:evenodd;fill:#E87058;}
	.st17{fill-rule:evenodd;clip-rule:evenodd;fill:#FFA483;}
</style>
<g>
	<rect x="0.5" y="-0.6" class="st0" width="1400" height="980"/>
	<g>
		<g>
			<g>
				<path class="st1" d="M900.1,396.8h152.2c4.8,0,7.7,4,6.4,8.8l-6.7,24.9c-1.3,4.8-6.3,8.8-11.2,8.8H888.7c-4.8,0-7.7-4-6.4-8.8
					l6.7-24.9C890.2,400.7,895.2,396.8,900.1,396.8z"/>
				<path class="st1" d="M1089.1,396.8h42.1c4.8,0,7.7,4,6.4,8.8l-6.7,24.9c-1.3,4.8-6.3,8.8-11.2,8.8h-42.1c-4.8,0-7.7-4-6.4-8.8
					l6.7-24.9C1079.2,400.7,1084.2,396.8,1089.1,396.8z"/>
			</g>
			<g>
				<path class="st1" d="M900.1,460.5h152.2c4.8,0,7.7,4,6.4,8.8l-6.7,24.9c-1.3,4.8-6.3,8.8-11.2,8.8H888.7c-4.8,0-7.7-4-6.4-8.8
					l6.7-24.9C890.2,464.4,895.2,460.5,900.1,460.5z"/>
				<path class="st1" d="M1089.1,460.5h42.1c4.8,0,7.7,4,6.4,8.8l-6.7,24.9c-1.3,4.8-6.3,8.8-11.2,8.8h-42.1c-4.8,0-7.7-4-6.4-8.8
					l6.7-24.9C1079.2,464.4,1084.2,460.5,1089.1,460.5z"/>
			</g>
			<g>
				<path class="st1" d="M900.1,524.2h152.2c4.8,0,7.7,4,6.4,8.8l-6.7,24.9c-1.3,4.8-6.3,8.8-11.2,8.8H888.7c-4.8,0-7.7-4-6.4-8.8
					l6.7-24.9C890.2,528.1,895.2,524.2,900.1,524.2z"/>
				<path class="st1" d="M1089.1,524.2h42.1c4.8,0,7.7,4,6.4,8.8l-6.7,24.9c-1.3,4.8-6.3,8.8-11.2,8.8h-42.1c-4.8,0-7.7-4-6.4-8.8
					l6.7-24.9C1079.2,528.1,1084.2,524.2,1089.1,524.2z"/>
			</g>
		</g>
		<path class="st2" d="M891.9,236.6l109.3,29.3c14.1,3.8,23.8,16.1,25,29.9l75,27.2c5.5,2,8.3,8.1,6.3,13.6
			c-0.2,0.5-0.4,0.9-0.6,1.3L980,623.8c-2.4,5.3-8.6,7.7-13.9,5.4c-5.3-2.4-7.7-8.6-5.4-13.9L1083.4,339l-60.7-22l-3.7,13.7
			c-4.8,18-23.6,28.9-41.6,24l-109.3-29.3c-18-4.8-28.9-23.6-24-41.6l6.2-23.2C855.1,242.6,873.9,231.8,891.9,236.6z"/>
		<path class="st2" d="M919.3,630.2h124.5c6.2,0,11.3-5.1,11.3-11.3v-7c0-6.2-5.1-11.3-11.3-11.3H919.3c-6.2,0-11.3,5.1-11.3,11.3v7
			C908,625.1,913.1,630.2,919.3,630.2z"/>
		<path class="st2" d="M700.5,880.8c325.2,0,590.5-22.4,590.5-49.8c0-27.4-265.3-49.8-590.5-49.8C375.3,781.2,110,803.5,110,831
			C110,858.4,375.3,880.8,700.5,880.8z"/>
		<path class="st1" d="M569.8,286.4c236.8,0,457.2,191.9,492.4,428.7c0.4,3,0.8,5.9,1.2,8.8H206.2c-0.5-2.9-1-5.9-1.4-8.8
			C169.6,478.3,333.1,286.4,569.8,286.4z"/>
		<path class="st3" d="M196.6,658.9h1007.9v104.2c0,21.9-17.9,39.9-39.9,39.9H236.4c-21.9,0-39.9-17.9-39.9-39.9V658.9z"/>
		<path class="st4" d="M1006,658.9h198.5v104.2c0,21.9-17.9,39.9-39.9,39.9H966.1c21.9,0,39.9-17.9,39.9-39.9V658.9z"/>
		<path class="st0" d="M551.2,628.6v34.1h41.9c2.7,0,4.9,2.2,4.9,4.9v2.9c0,2.7-2.2,4.9-4.9,4.9H410.5c-2.7,0-4.9-2.2-4.9-4.9v-2.9
			c0-2.7,2.2-4.9,4.9-4.9h41.9v-34.1H332.2c-8.5,0-15.5-7-15.5-15.5V398.6c0-8.5,7-15.5,15.5-15.5h339.3c8.5,0,15.5,7,15.5,15.5
			v214.4c0,8.5-7,15.5-15.5,15.5H551.2z"/>
		<path class="st5" d="M230.1,658.9h273.3v104.2c0,21.9-17.9,39.9-39.9,39.9H270c-21.9,0-39.9-17.9-39.9-39.9V658.9z"/>
		<path class="st6" d="M196.6,658.9H453v104.2c0,21.9-17.9,39.9-39.9,39.9H236.4c-21.9,0-39.9-17.9-39.9-39.9V658.9z"/>
		<g>
			<path class="st5" d="M405.5,630.2h786.3c12.2,0,22.1,9.9,22.1,22.1v13.1c0,12.2-9.9,22.1-22.1,22.1H405.5
				c-12.2,0-22.1-9.9-22.1-22.1v-13.1C383.4,640.2,393.3,630.2,405.5,630.2z"/>
			<path class="st6" d="M209.2,630.2h254.1c12.2,0,22.1,9.9,22.1,22.1v13.1c0,12.2-9.9,22.1-22.1,22.1H209.2
				c-12.2,0-22.1-9.9-22.1-22.1v-13.1C187.1,640.2,197.1,630.2,209.2,630.2z"/>
			<path class="st7" d="M209.2,630.2h105.6c12.2,0,22.1,9.9,22.1,22.1v13.1c0,12.2-9.9,22.1-22.1,22.1H209.2
				c-12.2,0-22.1-9.9-22.1-22.1v-13.1C187.1,640.2,197.1,630.2,209.2,630.2z"/>
		</g>
		<g>
			<rect x="520.6" y="578" class="st3" width="98.8" height="47"/>
			<g>
				<path class="st3" d="M400.3,337.9h339.4c8.5,0,15.5,7,15.5,15.5v214.4c0,8.5-7,15.5-15.5,15.5H400.3c-8.5,0-15.5-7-15.5-15.5
					V353.4C384.8,344.9,391.7,337.9,400.3,337.9z"/>
				<rect x="395.2" y="348.2" class="st8" width="349.5" height="224.9"/>
				<rect x="420.9" y="384.7" class="st9" width="269" height="161.9"/>
				<g>
					<rect x="395.2" y="556.3" class="st10" width="349.5" height="16.8"/>
					<path class="st11" d="M406.3,559.8h7c0.7,0,1.3,0.6,1.3,1.3v7.4c0,0.7-0.6,1.3-1.3,1.3h-7c-0.7,0-1.3-0.6-1.3-1.3v-7.4
						C405.1,560.4,405.6,559.8,406.3,559.8z"/>
					<circle class="st9" cx="427.7" cy="564.8" r="4.7"/>
					<circle class="st3" cx="443.6" cy="564.8" r="4.7"/>
					<path class="st11" d="M725.4,564.6h9.1c0.8,0,1.5,0.7,1.5,1.5v1.9c0,0.8-0.7,1.5-1.5,1.5h-9.1c-0.8,0-1.5-0.7-1.5-1.5V566
						C724,565.2,724.6,564.6,725.4,564.6z"/>
				</g>
				<g>
					<circle class="st11" cx="731.9" cy="361.6" r="2.9"/>
					<circle class="st12" cx="724.1" cy="361.6" r="2.9"/>
					<circle class="st13" cx="716.3" cy="361.6" r="2.9"/>
				</g>
				<rect x="696.4" y="390" class="st3" width="41.8" height="26.1"/>
				<g>
					<path class="st8" d="M420.3,384.7c0-0.3,0.3-0.6,0.6-0.6s0.6,0.3,0.6,0.6v161.9c0,0.3-0.3,0.6-0.6,0.6s-0.6-0.3-0.6-0.6V384.7z
						"/>
					<path class="st8" d="M438.3,384.7c0-0.3,0.3-0.6,0.6-0.6s0.6,0.3,0.6,0.6v161.9c0,0.3-0.3,0.6-0.6,0.6s-0.6-0.3-0.6-0.6V384.7z
						"/>
					<path class="st8" d="M456.3,384.7c0-0.3,0.3-0.6,0.6-0.6c0.3,0,0.6,0.3,0.6,0.6v161.9c0,0.3-0.3,0.6-0.6,0.6
						c-0.3,0-0.6-0.3-0.6-0.6V384.7z"/>
					<path class="st8" d="M474.3,384.7c0-0.3,0.3-0.6,0.6-0.6c0.3,0,0.6,0.3,0.6,0.6v161.9c0,0.3-0.3,0.6-0.6,0.6
						c-0.3,0-0.6-0.3-0.6-0.6V384.7z"/>
					<path class="st8" d="M492.2,384.7c0-0.3,0.3-0.6,0.6-0.6c0.3,0,0.6,0.3,0.6,0.6v161.9c0,0.3-0.3,0.6-0.6,0.6
						c-0.3,0-0.6-0.3-0.6-0.6V384.7z"/>
					<path class="st8" d="M510.2,384.7c0-0.3,0.3-0.6,0.6-0.6c0.3,0,0.6,0.3,0.6,0.6v161.9c0,0.3-0.3,0.6-0.6,0.6
						c-0.3,0-0.6-0.3-0.6-0.6V384.7z"/>
					<path class="st8" d="M528.2,384.7c0-0.3,0.3-0.6,0.6-0.6c0.3,0,0.6,0.3,0.6,0.6v161.9c0,0.3-0.3,0.6-0.6,0.6
						c-0.3,0-0.6-0.3-0.6-0.6V384.7z"/>
					<path class="st8" d="M546.2,384.7c0-0.3,0.3-0.6,0.6-0.6c0.3,0,0.6,0.3,0.6,0.6v161.9c0,0.3-0.3,0.6-0.6,0.6
						c-0.3,0-0.6-0.3-0.6-0.6V384.7z"/>
					<path class="st8" d="M564.2,384.7c0-0.3,0.3-0.6,0.6-0.6s0.6,0.3,0.6,0.6v161.9c0,0.3-0.3,0.6-0.6,0.6s-0.6-0.3-0.6-0.6V384.7z
						"/>
					<path class="st8" d="M582.2,384.7c0-0.3,0.3-0.6,0.6-0.6s0.6,0.3,0.6,0.6v161.9c0,0.3-0.3,0.6-0.6,0.6s-0.6-0.3-0.6-0.6V384.7z
						"/>
					<path class="st8" d="M582.8,384.1c0.3,0,0.6,0.3,0.6,0.6s-0.3,0.6-0.6,0.6H420.9c-0.3,0-0.6-0.3-0.6-0.6s0.3-0.6,0.6-0.6H582.8
						z"/>
					<path class="st12" d="M582.8,402.1c0.3,0,0.6,0.3,0.6,0.6s-0.3,0.6-0.6,0.6H420.9c-0.3,0-0.6-0.3-0.6-0.6s0.3-0.6,0.6-0.6
						H582.8z"/>
					<path class="st8" d="M582.8,420.1c0.3,0,0.6,0.3,0.6,0.6c0,0.3-0.3,0.6-0.6,0.6H420.9c-0.3,0-0.6-0.3-0.6-0.6
						c0-0.3,0.3-0.6,0.6-0.6H582.8z"/>
					<path class="st8" d="M582.8,438.1c0.3,0,0.6,0.3,0.6,0.6s-0.3,0.6-0.6,0.6H420.9c-0.3,0-0.6-0.3-0.6-0.6s0.3-0.6,0.6-0.6H582.8
						z"/>
					<path class="st8" d="M582.8,456.1c0.3,0,0.6,0.3,0.6,0.6s-0.3,0.6-0.6,0.6H420.9c-0.3,0-0.6-0.3-0.6-0.6s0.3-0.6,0.6-0.6H582.8
						z"/>
					<path class="st12" d="M582.8,474.1c0.3,0,0.6,0.3,0.6,0.6s-0.3,0.6-0.6,0.6H420.9c-0.3,0-0.6-0.3-0.6-0.6s0.3-0.6,0.6-0.6
						H582.8z"/>
					<path class="st8" d="M582.8,492.1c0.3,0,0.6,0.3,0.6,0.6c0,0.3-0.3,0.6-0.6,0.6H420.9c-0.3,0-0.6-0.3-0.6-0.6
						c0-0.3,0.3-0.6,0.6-0.6H582.8z"/>
					<path class="st8" d="M582.8,510.1c0.3,0,0.6,0.3,0.6,0.6c0,0.3-0.3,0.6-0.6,0.6H420.9c-0.3,0-0.6-0.3-0.6-0.6
						c0-0.3,0.3-0.6,0.6-0.6H582.8z"/>
					<path class="st8" d="M582.8,528.1c0.3,0,0.6,0.3,0.6,0.6c0,0.3-0.3,0.6-0.6,0.6H420.9c-0.3,0-0.6-0.3-0.6-0.6
						c0-0.3,0.3-0.6,0.6-0.6H582.8z"/>
					<path class="st8" d="M582.8,546.1c0.3,0,0.6,0.3,0.6,0.6s-0.3,0.6-0.6,0.6H420.9c-0.3,0-0.6-0.3-0.6-0.6s0.3-0.6,0.6-0.6H582.8
						z"/>
				</g>
				<g>
					<path class="st14" d="M492.6,415.9c1.8,1,21.4,12.4,21.4,12.3l21.5,12.4c0.6,0.3,0.9,0.9,0.9,1.5h0v49.6c0,0.7-0.4,1.3-1,1.6
						L514,505.8l-0.1,0.1l-21.4,12.4c-0.6,0.3-1.3,0.3-1.8,0l0,0l-43-24.8c-0.6-0.3-0.9-0.9-0.9-1.5h0v-49.6c0-0.7,0.4-1.3,1-1.6
						l42.9-24.7C491.3,415.5,492,415.5,492.6,415.9L492.6,415.9z M512.2,431.3l-20.6-11.9l-41.2,23.8v47.6l41.2,23.8l20.5-11.8
						l0.1-0.1l20.6-11.9v-47.6L512.2,431.3L512.2,431.3z"/>
					<path class="st11" d="M536.4,442.2v49.6c0,0.7-0.4,1.3-1,1.6L514,505.8l-0.1,0.1l-21.4,12.4c-0.9,0.5-1.9,0.2-2.4-0.7
						c-0.2-0.3-0.2-0.6-0.2-0.9h0V467c0-0.7,0.4-1.3,1-1.6l21.4-12.3l0.1-0.1l21.4-12.4c0.9-0.5,1.9-0.2,2.4,0.7
						C536.3,441.6,536.3,441.9,536.4,442.2L536.4,442.2L536.4,442.2z M532.8,467v-21.7l-18.7,10.8l-0.1,0.1L493.4,468v45.5
						l18.7-10.8l0.1-0.1l20.6-11.9V467z"/>
					<path class="st13" d="M492.6,415.9c1.8,1,21.4,12.4,21.4,12.3l21.5,12.4c0.9,0.5,1.1,1.6,0.7,2.4c-0.2,0.3-0.4,0.5-0.7,0.7
						L514,456.1l-0.1,0.1l-21.4,12.4c-0.6,0.3-1.3,0.3-1.8,0l0,0l-43-24.8c-0.9-0.5-1.1-1.6-0.7-2.4c0.2-0.3,0.4-0.5,0.7-0.7
						l43-24.8C491.3,415.5,492,415.5,492.6,415.9L492.6,415.9z M512.2,431.3l-20.6-11.9l-39.4,22.8l39.4,22.8l20.5-11.8l0.1-0.1
						l18.8-10.9L512.2,431.3L512.2,431.3z"/>
					<path class="st13" d="M492.6,465.5c1.8,1,21.4,12.4,21.4,12.3l21.5,12.4c0.9,0.5,1.1,1.6,0.7,2.4c-0.2,0.3-0.4,0.5-0.7,0.7
						L514,505.8l-0.1,0.1l-21.4,12.4c-0.6,0.3-1.3,0.3-1.8,0l0,0l-43-24.8c-0.9-0.5-1.1-1.6-0.7-2.4c0.2-0.3,0.4-0.5,0.7-0.7
						l43-24.8C491.3,465.1,492,465.2,492.6,465.5L492.6,465.5z M512.2,481l-20.6-11.9l-39.4,22.8l39.4,22.8l20.5-11.8l0.1-0.1
						l18.8-10.9L512.2,481L512.2,481z"/>
				</g>
				<g>
					<path class="st9" d="M409.2,353.4h7.3c1.1,0,1.9,0.9,1.9,1.9v0c0,1.1-0.9,1.9-1.9,1.9h-7.3c-1.1,0-1.9-0.9-1.9-1.9v0
						C407.3,354.3,408.2,353.4,409.2,353.4z"/>
					<path class="st9" d="M424.7,353.4h7.3c1.1,0,1.9,0.9,1.9,1.9v0c0,1.1-0.9,1.9-1.9,1.9h-7.3c-1.1,0-1.9-0.9-1.9-1.9v0
						C422.8,354.3,423.6,353.4,424.7,353.4z"/>
					<path class="st9" d="M440.1,353.4h7.3c1.1,0,1.9,0.9,1.9,1.9v0c0,1.1-0.9,1.9-1.9,1.9h-7.3c-1.1,0-1.9-0.9-1.9-1.9v0
						C438.2,354.3,439,353.4,440.1,353.4z"/>
					<path class="st9" d="M455.5,353.4h7.3c1.1,0,1.9,0.9,1.9,1.9v0c0,1.1-0.9,1.9-1.9,1.9h-7.3c-1.1,0-1.9-0.9-1.9-1.9v0
						C453.6,354.3,454.5,353.4,455.5,353.4z"/>
					<path class="st9" d="M471,353.4h7.3c1.1,0,1.9,0.9,1.9,1.9v0c0,1.1-0.9,1.9-1.9,1.9H471c-1.1,0-1.9-0.9-1.9-1.9v0
						C469,354.3,469.9,353.4,471,353.4z"/>
					<path class="st3" d="M410.5,367.5h4.7c0.8,0,1.5,0.7,1.5,1.5v4.3c0,0.8-0.7,1.5-1.5,1.5h-4.7c-0.8,0-1.5-0.7-1.5-1.5V369
						C409,368.2,409.6,367.5,410.5,367.5z"/>
					<path class="st3" d="M422.4,367.5h4.7c0.8,0,1.5,0.7,1.5,1.5v4.3c0,0.8-0.7,1.5-1.5,1.5h-4.7c-0.8,0-1.5-0.7-1.5-1.5V369
						C420.9,368.2,421.6,367.5,422.4,367.5z"/>
					<path class="st3" d="M434.3,367.5h4.7c0.8,0,1.5,0.7,1.5,1.5v4.3c0,0.8-0.7,1.5-1.5,1.5h-4.7c-0.8,0-1.5-0.7-1.5-1.5V369
						C432.8,368.2,433.5,367.5,434.3,367.5z"/>
					<path class="st3" d="M446.2,367.5h4.7c0.8,0,1.5,0.7,1.5,1.5v4.3c0,0.8-0.7,1.5-1.5,1.5h-4.7c-0.8,0-1.5-0.7-1.5-1.5V369
						C444.7,368.2,445.4,367.5,446.2,367.5z"/>
					<path class="st3" d="M458.1,367.5h20.7c0.8,0,1.5,0.7,1.5,1.5v4.3c0,0.8-0.7,1.5-1.5,1.5h-20.7c-0.8,0-1.5-0.7-1.5-1.5V369
						C456.6,368.2,457.3,367.5,458.1,367.5z"/>
					<path class="st3" d="M495.5,367.5h4.7c0.8,0,1.5,0.7,1.5,1.5v4.3c0,0.8-0.7,1.5-1.5,1.5h-4.7c-0.8,0-1.5-0.7-1.5-1.5V369
						C494,368.2,494.7,367.5,495.5,367.5z"/>
					<path class="st3" d="M507.4,367.5h4.7c0.8,0,1.5,0.7,1.5,1.5v4.3c0,0.8-0.7,1.5-1.5,1.5h-4.7c-0.8,0-1.5-0.7-1.5-1.5V369
						C505.9,368.2,506.6,367.5,507.4,367.5z"/>
					<path class="st3" d="M519.4,367.5h20.7c0.8,0,1.5,0.7,1.5,1.5v4.3c0,0.8-0.7,1.5-1.5,1.5h-20.7c-0.8,0-1.5-0.7-1.5-1.5V369
						C517.9,368.2,518.6,367.5,519.4,367.5z"/>
					<path class="st11" d="M408.2,388.6h2.4c1.1,0,2,0.9,2,2v0.1c0,1.1-0.9,2-2,2h-2.4c-1.1,0-2-0.9-2-2v-0.1
						C406.2,389.6,407.1,388.6,408.2,388.6z"/>
					<path class="st11" d="M408.2,397.8h2.4c1.1,0,2,0.9,2,2v0.1c0,1.1-0.9,2-2,2h-2.4c-1.1,0-2-0.9-2-2v-0.1
						C406.2,398.7,407.1,397.8,408.2,397.8z"/>
					<path class="st11" d="M408.2,407h2.4c1.1,0,2,0.9,2,2v0.1c0,1.1-0.9,2-2,2h-2.4c-1.1,0-2-0.9-2-2V409
						C406.2,407.9,407.1,407,408.2,407z"/>
					<path class="st9" d="M408.2,416.2h2.4c1.1,0,2,0.9,2,2v0.1c0,1.1-0.9,2-2,2h-2.4c-1.1,0-2-0.9-2-2v-0.1
						C406.2,417.1,407.1,416.2,408.2,416.2z"/>
					<path class="st9" d="M408.2,425.3h2.4c1.1,0,2,0.9,2,2v0.1c0,1.1-0.9,2-2,2h-2.4c-1.1,0-2-0.9-2-2v-0.1
						C406.2,426.2,407.1,425.3,408.2,425.3z"/>
				</g>
				<g>
					<polygon class="st8" points="640.9,411.6 655.3,419.9 669.7,428.2 669.7,444.8 669.7,461.3 655.3,469.6 640.9,477.9 
						626.6,469.6 612.2,461.3 612.2,444.8 612.2,428.2 626.6,419.9 					"/>
					<polygon class="st11" points="669.7,428.2 669.7,444.8 669.7,461.3 655.3,469.6 640.9,477.9 640.9,461.3 640.9,444.8 
						655.3,436.5 					"/>
					<polygon class="st12" points="640.9,411.6 655.3,419.9 669.7,428.2 655.3,436.5 640.9,444.8 626.6,436.5 612.2,428.2 
						626.6,419.9 					"/>
				</g>
				<path class="st9" d="M699.2,421.3h13.5c1.1,0,1.9,0.9,1.9,1.9v2.8c0,1.1-0.9,1.9-1.9,1.9h-13.5c-1.1,0-1.9-0.9-1.9-1.9v-2.8
					C697.3,422.2,698.2,421.3,699.2,421.3z"/>
				<path class="st9" d="M699.2,432h13.5c1.1,0,1.9,0.9,1.9,1.9v2.8c0,1.1-0.9,1.9-1.9,1.9h-13.5c-1.1,0-1.9-0.9-1.9-1.9v-2.8
					C697.3,432.9,698.2,432,699.2,432z"/>
				<path class="st9" d="M699.2,442.7h13.5c1.1,0,1.9,0.9,1.9,1.9v2.8c0,1.1-0.9,1.9-1.9,1.9h-13.5c-1.1,0-1.9-0.9-1.9-1.9v-2.8
					C697.3,443.6,698.2,442.7,699.2,442.7z"/>
				<path class="st9" d="M699.2,453.4h13.5c1.1,0,1.9,0.9,1.9,1.9v2.8c0,1.1-0.9,1.9-1.9,1.9h-13.5c-1.1,0-1.9-0.9-1.9-1.9v-2.8
					C697.3,454.3,698.2,453.4,699.2,453.4z"/>
				<path class="st9" d="M720.6,421.3H734c1.1,0,1.9,0.9,1.9,1.9v2.8c0,1.1-0.9,1.9-1.9,1.9h-13.5c-1.1,0-1.9-0.9-1.9-1.9v-2.8
					C718.6,422.2,719.5,421.3,720.6,421.3z"/>
				<path class="st9" d="M720.6,432H734c1.1,0,1.9,0.9,1.9,1.9v2.8c0,1.1-0.9,1.9-1.9,1.9h-13.5c-1.1,0-1.9-0.9-1.9-1.9v-2.8
					C718.6,432.9,719.5,432,720.6,432z"/>
				<path class="st9" d="M720.6,442.7H734c1.1,0,1.9,0.9,1.9,1.9v2.8c0,1.1-0.9,1.9-1.9,1.9h-13.5c-1.1,0-1.9-0.9-1.9-1.9v-2.8
					C718.6,443.6,719.5,442.7,720.6,442.7z"/>
				<path class="st9" d="M720.6,453.4H734c1.1,0,1.9,0.9,1.9,1.9v2.8c0,1.1-0.9,1.9-1.9,1.9h-13.5c-1.1,0-1.9-0.9-1.9-1.9v-2.8
					C718.6,454.3,719.5,453.4,720.6,453.4z"/>
				<path class="st9" d="M699.7,466.8h33.8c1.3,0,2.4,1.1,2.4,2.4v0.9c0,1.3-1.1,2.4-2.4,2.4h-33.8c-1.3,0-2.4-1.1-2.4-2.4v-0.9
					C697.3,467.9,698.4,466.8,699.7,466.8z"/>
				<path class="st9" d="M699.7,476.8h33.8c1.3,0,2.4,1.1,2.4,2.4v0.9c0,1.3-1.1,2.4-2.4,2.4h-33.8c-1.3,0-2.4-1.1-2.4-2.4v-0.9
					C697.3,477.9,698.4,476.8,699.7,476.8z"/>
			</g>
			<path class="st3" d="M478.7,617.5h182.6c2.7,0,4.9,2.2,4.9,4.9v2.9c0,2.7-2.2,4.9-4.9,4.9H478.7c-2.7,0-4.9-2.2-4.9-4.9v-2.9
				C473.8,619.7,476,617.5,478.7,617.5z"/>
		</g>
		<path class="st3" d="M1133.1,745c7.8,0,14.1-6.3,14.1-14.1c0-7.8-6.3-14.1-14.1-14.1c-7.8,0-14.1,6.3-14.1,14.1
			C1118.9,738.7,1125.3,745,1133.1,745z"/>
		<g>
			<g>
				<path class="st3" d="M332.8,480.6c3.8,2.6,6.5,6.9,7,11.7l12.9,13c2.3,2.2,2.4,5.8,0.3,8.1l-12.8,13.8c-0.1,0.1-0.2,0.2-0.4,0.3
					c0,0.4,0,0.7,0,1.1v7.4c0,1.1-0.1,2.2-0.3,3.2v78.4h-16.6v-65.3c-1.2-0.1-2.4-0.2-3.5-0.5l-13.2,65.9h-16.6l17.8-88.6v-0.3
					c0-1.1,0.1-2.2,0.3-3.2c-0.2-1-0.3-2.1-0.3-3.2v-15.4c-1.6,1.9-3.8,3-6.1,3.1L288,526.4c0.9,1.4,1.5,3,1.5,4.8
					c0,4.7-3.8,8.5-8.5,8.5c-2.2,0-4.1-0.8-5.6-2.1l-25.6,32.1c-1,1.2-2.8,1.4-4,0.5c-1.2-1-1.4-2.8-0.5-4l27.3-34.2
					c0-0.2,0-0.5,0-0.7c0-1.3,0.3-2.6,0.8-3.7c0.1-1,0.5-1.9,1.2-2.7l17.7-22.2c-0.4-2.3,0.2-4.8,1.8-6.8l14.2-17.7
					c1.4-1.7,3.2-2.8,5.2-3.1v-3.8v-0.1v-7l-0.2,0.8l-11.1-19.2l10.4,8.3l1.6-5.3l2.5,4.3c2.2-2.4,5.3-3.9,8.8-3.9l0,0
					c6.6,0,11.9,5.4,11.9,11.9v10.2C337.3,475,335.5,478.4,332.8,480.6L332.8,480.6z M340.8,509.6l-0.9-0.9v2L340.8,509.6z"/>
				<path class="st14" d="M325.6,487.9h7.2c2.5,0,4.5,2,4.5,4.5v4.5c0,2.5-2,4.5-4.5,4.5h-7.2c-2.5,0-4.5-2-4.5-4.5v-4.5
					C321.1,489.9,323.1,487.9,325.6,487.9z"/>
			</g>
			<path class="st3" d="M257,630.2h118.4v-11.4c0-6.3-5.1-11.4-11.4-11.4h-95.6c-6.3,0-11.4,5.1-11.4,11.4V630.2z"/>
		</g>
		<path class="st3" d="M1071.5,554.1h44.3c3.8,0,7.1,2.7,7.9,6.3h8.5c3.1,0,5.9,1.3,8,3.3l0,0c2,2,3.3,4.9,3.3,8v34.9
			c0,3.1-1.3,5.9-3.3,8l0,0c-2,2-4.9,3.3-8,3.3h-8.3v4.3c0,4.4-3.6,8.1-8.1,8.1h-44.3c-4.4,0-8.1-3.6-8.1-8.1v-60
			C1063.4,557.7,1067,554.1,1071.5,554.1L1071.5,554.1z M1123.9,568.8v40.6h8.3c0.8,0,1.5-0.3,2-0.8l0,0c0.5-0.5,0.8-1.2,0.8-2
			v-34.9c0-0.8-0.3-1.5-0.8-2l0,0c-0.5-0.5-1.2-0.8-2-0.8H1123.9z"/>
		<g>
			<g>
				<g>
					<path class="st15" d="M868.9,711.7h190.5c14.9,0,27.1,12.2,27.1,27.1v0c0,14.9-12.2,27.1-27.1,27.1H868.9
						c-14.9,0-27.1-12.2-27.1-27.1v0C841.8,723.9,854,711.7,868.9,711.7z"/>
					<path class="st1" d="M868.9,711.7H937c14.9,0,27.1,12.2,27.1,27.1v0c0,14.9-12.2,27.1-27.1,27.1h-68.1
						c-14.9,0-27.1-12.2-27.1-27.1v0C841.8,723.9,854,711.7,868.9,711.7z"/>
				</g>
				<polygon class="st1" points="891.5,736.4 941.5,736.4 964.3,803 914.3,803 				"/>
				<polygon class="st15" points="1038.6,736.4 988.6,736.4 965.8,803 1015.7,803 				"/>
			</g>
			<path class="st16" d="M896.2,406.6L896.2,406.6c-22.2,0-40.4,18.2-40.4,40.4V510c0,22.2,18.2,40.4,40.4,40.4h0
				c22.2,0,40.4-18.2,40.4-40.4v-62.9C936.6,424.8,918.4,406.6,896.2,406.6z"/>
			<path class="st16" d="M863.4,312.3h4.1c38,0,69.1,31.1,69.1,69.1v46c0,38-31.1,69.1-69.1,69.1h-23.6c-27.3,0-49.7-22.3-49.7-49.7
				v-65.4C794.3,343.4,825.4,312.3,863.4,312.3z"/>
			<path class="st17" d="M829.4,494.3c-20.3-6.3-35.1-25.2-35.1-47.5v-65.4c0-29,18.1-53.9,43.5-64.2c25.4,10.2,43.5,35.2,43.5,64.2
				v46C881.3,459.4,859.1,486.6,829.4,494.3z"/>
			<path class="st3" d="M825,303.3h70.6c22.6,0,41.1,18.5,41.1,41.1l0,0c0,22.6-18.5,41.1-41.1,41.1H825
				c-22.6,0-41.1-18.5-41.1-41.1l0,0C783.9,321.8,802.4,303.3,825,303.3z"/>
			<path class="st3" d="M849,333.4L849,333.4c21,0,38.2,17.2,38.2,38.2v5.8c0,21-17.2,38.2-38.2,38.2h0c-21,0-38.2-17.2-38.2-38.2
				v-5.8C810.8,350.6,828,333.4,849,333.4z"/>
			<path class="st3" d="M963.5,371.3v40.4c0,22.6-18.5,41.1-41.1,41.1l0,0c-22.6,0-41.1-18.5-41.1-41.1v-40.4
				c0-22.6,18.5-41.1,41.1-41.1l0,0C945,330.2,963.5,348.7,963.5,371.3z"/>
			<path class="st17" d="M878.2,442.6c14.8,0,27-12.1,27-27c0-14.8-12.1-27-27-27c-14.8,0-27,12.1-27,27
				C851.3,430.5,863.4,442.6,878.2,442.6z"/>
			<path class="st11" d="M804.5,687.6h177V556.2c0-25.4-20.8-46.3-46.3-46.3h-66.1c-35.6,0-64.7,29.1-64.7,64.7V687.6z"/>
			<g>
				<path class="st17" d="M611.8,587L611.8,587l0.1-0.1l0,0l0.1-0.1l0,0l0.1-0.1l0,0c1.1-0.7,2.3-1.1,3.5-1.3l0.2,0l0,0l0.2,0l0,0
					l0.2,0c0.8-0.1,1.7,0,2.5,0.2l0,0l0.1,0l0.1,0l0.1,0l0.2,0l0,0c0.3,0.1,0.5,0.2,0.8,0.3l24.7,9.3c4.6,1.7,6.9,6.8,5.2,11.3
					c-1.7,4.6-6.8,6.9-11.3,5.2l-20.3-7.6l-9.9,7.8c-3.8,3-9.4,2.3-12.4-1.5c-3-3.8-2.3-9.4,1.5-12.4l13.7-10.7
					C611.6,587.2,611.7,587.1,611.8,587z"/>
				<path class="st17" d="M598.4,609.2L598.4,609.2l0.1-0.1l0.1-0.1l0,0c1.3-0.9,2.7-1.4,4.1-1.6l0.2,0l0,0l0.2,0l0,0l0.2,0l0,0
					c0.7,0,1.4,0,2,0.2l0.1,0l0.1,0l0.1,0l0.1,0c0.4,0.1,0.8,0.2,1.2,0.4l24.7,9.3c4.6,1.7,6.9,6.8,5.2,11.3
					c-1.7,4.6-6.8,6.9-11.3,5.2l-20.3-7.6l-9.9,7.8c-3.8,3-9.4,2.3-12.4-1.5c-3-3.8-2.3-9.4,1.5-12.4L598.4,609.2L598.4,609.2
					L598.4,609.2z"/>
				<g>
					<path class="st17" d="M684.8,671.8c-18.2-6.8-27.5-27.1-20.7-45.3c6.8-18.2,27.1-27.5,45.3-20.7L816.8,646
						c18.2,6.8,27.5,27.1,20.7,45.3c-6.8,18.2-27.1,27.5-45.3,20.7L684.8,671.8z"/>
					<path class="st17" d="M648.6,596.2h46.5c20.9,0,37.9,17.1,37.9,37.9v0c0,20.9-17.1,37.9-37.9,37.9h-46.5
						c-20.9,0-37.9-17.1-37.9-37.9v0C610.7,613.3,627.8,596.2,648.6,596.2z"/>
					<path class="st17" d="M800.9,569.7c5.6-18.6,25.3-29.1,43.9-23.5c18.6,5.6,29.1,25.3,23.5,43.9l-30,99.1
						c-5.6,18.6-25.3,29.1-43.9,23.5c-18.6-5.6-29.1-25.3-23.5-43.9L800.9,569.7z"/>
					<path class="st11" d="M812.3,532.1c5.6-18.6,25.3-29.1,43.9-23.5c18.6,5.6,29.1,25.3,23.5,43.9L862.6,609
						c-5.6,18.6-25.3,29.1-44,23.5c-18.6-5.6-29.1-25.3-23.5-43.9L812.3,532.1z"/>
				</g>
			</g>
			<path class="st3" d="M801.7,803h200.1l37.8-247.5c8.4-55-29.8-100.1-84.8-100.1h0c-55,0-106.9,45-115.3,100.1L801.7,803z"/>
			<g>
				<g>
					<path class="st15" d="M675.5,711.7h190.5c14.9,0,27.1,12.2,27.1,27.1v0c0,14.9-12.2,27.1-27.1,27.1H675.5
						c-14.9,0-27.1-12.2-27.1-27.1v0C648.3,723.9,660.5,711.7,675.5,711.7z"/>
					<path class="st1" d="M675.5,711.7h68.1c14.9,0,27.1,12.2,27.1,27.1v0c0,14.9-12.2,27.1-27.1,27.1h-68.1
						c-14.9,0-27.1-12.2-27.1-27.1v0C648.3,723.9,660.5,711.7,675.5,711.7z"/>
				</g>
				<polygon class="st1" points="698,736.4 748,736.4 770.8,803 720.9,803 				"/>
				<polygon class="st15" points="845.1,736.4 795.1,736.4 772.3,803 822.3,803 				"/>
			</g>
		</g>
		<path class="st3" d="M700.5,862.7c301.5,0,547.3-22.4,547.3-49.8c0-27.4-245.9-49.8-547.3-49.8c-301.5,0-547.3,22.4-547.3,49.8
			C153.2,840.3,399,862.7,700.5,862.7z"/>
	</g>
</g>
</svg>
